# xmcd
#
# Track frame offsets:
# 150
# 20765
# 41862
# 65740
# 76497
# 93425
# 109805
# 131157
# 150720
# 164490
# 179792
# 192512
#
# Disc length: 2760 seconds
#
#
# Revision: 3
# Processed by: cddbd v1.5.1PL2 Copyright (c) Steve Scherf et al.
# Submitted via: FreeRIP 2.944 
#
DISCID=b40ac60c
DTITLE=Imperial Crowns - Hymn Book
DYEAR=2004
DGENRE=Bluesrock
TTITLE0=Lil' Death
TTITLE1=The River
TTITLE2=Kingsize Jones
TTITLE3=Baby's gone wild!
TTITLE4=Golden girl
TTITLE5=You don't miss your water
TTITLE6=Comin' fuh Ya
TTITLE7=Love Blues
TTITLE8=(Simply) Just a dream
TTITLE9=Blues Au GoGo
TTITLE10=Restless Soul
TTITLE11=Mr. Jinx
EXTD=
EXTT0=
EXTT1=
EXTT2=
EXTT3=
EXTT4=
EXTT5=
EXTT6=
EXTT7=
EXTT8=
EXTT9=
EXTT10=
EXTT11=
PLAYORDER=
